REM MD5 ce82b21a4b5a838332f8739061f32922
FILE "Euro Demo 18 (France).bin" BINARY
  TRACK 01 MODE2/2352
    INDEX 01 00:00:00
  TRACK 02 AUDIO
    INDEX 00 21:28:05
    INDEX 01 21:30:05
  TRACK 03 AUDIO
    INDEX 00 23:25:65
    INDEX 01 23:27:65
  TRACK 04 AUDIO
    INDEX 00 29:01:63
    INDEX 01 29:03:63
  TRACK 05 AUDIO
    INDEX 00 29:14:03
    INDEX 01 29:16:03
REM LEADOUT 32:17:34
